<svg width="398" height="398" viewBox="0 0 398 398" fill="none" xmlns="http://www.w3.org/2000/svg">
<g opacity="0.21">
<path d="M199 33.1667C290.59 33.1667 364.833 107.41 364.833 199C364.833 267.489 323.309 326.294 264.056 351.583L222.3 242.962C232.112 237.759 239.901 229.422 244.426 219.279C248.951 209.136 249.952 197.77 247.269 186.992C244.587 176.215 238.374 166.645 229.622 159.806C220.87 152.968 210.082 149.256 198.975 149.26C187.868 149.264 177.082 152.984 168.335 159.828C159.588 166.673 153.382 176.247 150.707 187.027C148.032 197.807 149.041 209.171 153.573 219.311C158.106 229.451 165.901 237.783 175.717 242.979L133.96 351.6C104.056 338.838 78.5596 317.571 60.64 290.441C42.7204 263.311 33.167 231.514 33.1667 199C33.1667 107.41 107.41 33.1667 199 33.1667Z" fill="black"/>
</g>
</svg>
